<svg xmlns="http://www.w3.org/2000/svg" xmlns:xlink="http://www.w3.org/1999/xlink" viewBox="0 0 32 32"><defs><linearGradient id="a" x1="14.23" y1="32" x2="14.23" gradientUnits="userSpaceOnUse"><stop offset="0" stop-color="#179ad7"/><stop offset="1" stop-color="#63c5e6"/></linearGradient></defs><path d="M24.43,12c-.77-1.56-1.65-3.14-2.54-4.61l-3.77,3.69L10,19,5.44,23.5l-4,4A15.65,15.65,0,0,0,4,32l4.11-4A11.06,11.06,0,0,0,27.06,20.2C27.06,18.11,26,15.08,24.43,12ZM16,26a6,6,0,0,1-4.14-1.63l8.9-8.73a11.38,11.38,0,0,1,1.32,4.27A6.09,6.09,0,0,1,16,26ZM5,21.06c0-.28,0-.57,0-.86C4.94,14.1,14.34,0,16,0c.68,0,2.66,2.37,4.76,5.59Z" fill="url(#a)"/></svg>